<?xml version="1.0" encoding="utf-8"?>
<!-- Generator: Adobe Illustrator 19.2.0, SVG Export Plug-In . SVG Version: 6.00 Build 0)  -->
<svg version="1.1" id="Layer_1" xmlns="http://www.w3.org/2000/svg" xmlns:xlink="http://www.w3.org/1999/xlink" x="0px" y="0px"
	 viewBox="0 0 146.9 100" style="enable-background:new 0 0 146.9 100;" xml:space="preserve">
<style type="text/css">
	.st0{display:none;fill:#4B7890;}
	.st1{fill:#4B7890;}
	.st2{fill:#4D4E4F;}
	.st3{fill:#9CCA68;}
	.st4{fill:#F9D367;}
</style>
<polygon class="st0" points="113.4,1.9 50.4,11.7 14.5,35.5 75.5,27.1 "/>
<g>
	<polygon class="st1" points="24.5,30 25.9,23.8 37.4,15.8 44.9,16.4 	"/>
	<polygon class="st2" points="14.5,35.8 49.9,11.9 112.5,2.4 74.6,27.5 	"/>
	<polygon class="st3" points="14.5,35.8 75.5,27.3 92.8,86.2 32.2,95.9 	"/>
	<polygon class="st3" points="34.7,33.1 36.9,29.2 53,26.1 56.8,30 	"/>
</g>
<polygon class="st4" points="74.6,27.5 112.5,2.4 129.1,58.8 92,86.6 "/>
<polygon class="st4" points="84.2,22.9 85.3,16.6 98.1,8.3 102.4,10.8 "/>
<polygon class="st2" points="65.7,9.6 70.6,5.9 89.2,2.7 92.5,5.5 "/>
</svg>
